PathFileType	4	(X/Y/Z)	C:\Users\WrightLab\Desktop\Jo\P2_Trial15.trc
DataRate	CameraRate	NumFrames	NumMarkers	Units	OrigDataRate	OrigDataStartFrame	OrigNumFrames
100.00	100.00	       8	19	mm	100.00	111	       440
Frame#	Time	Headset_Front			Headset_Back			Headset_Left			Headset_Right			Left_Shoulder			Right_Shoulder			Sternum			C7			Left Elbow			Right Elbow			Left Wrist			Right Wrist			Left ASIS			Right ASIS			S2			Left Knee			Right Knee			Left Ankle			Right Ankle			
		X1	Y1	Z1	X2	Y2	Z2	X3	Y3	Z3	X4	Y4	Z4	X5	Y5	Z5	X6	Y6	Z6	X7	Y7	Z7	X8	Y8	Z8	X9	Y9	Z9	X10	Y10	Z10	X11	Y11	Z11	X12	Y12	Z12	X13	Y13	Z13	X14	Y14	Z14	X15	Y15	Z15	X16	Y16	Z16	X17	Y17	Z17	X18	Y18	Z18	X19	Y19	Z19	

111	1.100				-616.47205	1689.27490	-465.63882	-493.54007	1582.51782	-406.75601	-691.64148	1562.56689	-290.90930	-482.49857	1441.70166	-487.32614	-804.84900	1441.03711	-431.11221	-637.00739	1324.40308	-395.02002	-676.61084	1429.82288	-564.80737	-356.75595	1101.04993	-464.93549	-908.53992	1113.62854	-425.08688	-320.67010	875.67224	-399.40244	-912.24304	867.62042	-346.06332	-580.43689	1040.04895	-353.53784	-710.88629	1026.16516	-348.11755	-643.64581	940.73022	-609.61493	-484.84567	435.60376	-444.21121	-835.11115	573.43762	-317.14981	-570.24261	85.82265	-460.81656	-858.83704	246.95566	-464.49899	
112	1.110				-614.52997	1688.77100	-453.93344	-491.47058	1581.74585	-396.51151	-689.67047	1562.65820	-281.14648	-481.02454	1441.92493	-477.19891	-802.63177	1440.05505	-419.20453	-634.03986	1324.21594	-386.44000	-675.29028	1429.39954	-553.63336	-353.63998	1101.76013	-452.77850	-908.93530	1114.14697	-415.63458	-318.35745	877.73096	-384.44342	-914.36475	866.98584	-336.64621	-579.39520	1037.88599	-346.20850	-709.41278	1024.05383	-343.09418	-645.12622	939.84692	-599.40820	-481.09726	433.94632	-447.04016	-834.88049	577.81940	-297.34732	-568.02734	84.36834	-462.30545	-857.59265	240.30519	-431.51328	
113	1.120				-612.55200	1688.07483	-443.42752	-489.81326	1580.49390	-385.96347	-687.61957	1560.82788	-270.22763	-478.90894	1440.64404	-467.98486	-800.73450	1439.79175	-408.62021	-632.40753	1322.99609	-375.47684	-673.43597	1427.68774	-542.96777	-350.77310	1101.18921	-439.94269	-908.07397	1113.24902	-404.72717	-315.83041	878.42590	-367.88345	-915.21173	864.99451	-328.88300	-577.39185	1036.83838	-337.11417	-709.02850	1023.12378	-335.03375	-646.10687	938.77069	-588.89404	-477.86884	433.06973	-449.81641	-833.89209	582.26636	-280.04752	-565.71930	82.48913	-464.70093	-857.02765	233.05467	-398.70123	
114	1.130				-610.49310	1687.01538	-432.13370	-487.93082	1579.62512	-374.63629	-684.54425	1558.72388	-258.78793	-477.70364	1439.34106	-457.88828	-798.65161	1438.58289	-397.18060	-630.91882	1321.23682	-364.53818	-672.61157	1426.86328	-532.69769	-347.50711	1100.97925	-428.94882	-906.96991	1112.35913	-395.42505	-318.34238	874.60797	-379.14490	-919.81909	865.18976	-320.77765	-575.39545	1035.50818	-328.02734	-705.71729	1022.53845	-321.97885	-646.94568	937.18610	-578.36188	-474.86716	432.50885	-452.85861	-833.42194	585.18530	-263.64011	-564.25397	81.93997	-465.86157	-855.78528	223.54698	-364.98685	
115	1.140				-608.42535	1685.99854	-420.77499	-485.52777	1578.09668	-365.70493	-682.92535	1558.33899	-248.76337	-476.25720	1437.79773	-448.76019	-796.74402	1437.26392	-385.54858	-627.86957	1320.78772	-355.54788	-671.19421	1425.80432	-522.27435	-345.45755	1100.39709	-416.51544	-906.90613	1111.81641	-386.04132	-315.44293	874.18054	-365.36215	-921.18646	863.91357	-311.50827	-574.49030	1034.65283	-316.81342	-704.99426	1019.93909	-314.03079	-647.71259	935.95837	-568.14392	-472.18301	431.36127	-455.21515	-832.86694	586.72522	-247.95767	-561.61255	80.06217	-468.07587	-854.91199	213.68883	-331.44684	
116	1.150				-606.27527	1684.68018	-410.39459	-483.82132	1576.59680	-353.95685	-680.31506	1555.96680	-237.37408	-474.32480	1436.33057	-439.31961	-795.30225	1436.24084	-374.42377	-626.24225	1319.32361	-344.56265	-669.68286	1424.07373	-511.46823	-342.25037	1099.39868	-404.33157	-906.06860	1110.63611	-376.13205	-313.79950	874.90350	-349.31741	-922.40240	863.37622	-302.50558	-572.61218	1032.59314	-306.11865	-702.63031	1021.93408	-293.96793	-648.30115	935.19208	-558.20294	-470.92145	430.08582	-456.66141	-831.41278	587.14081	-233.15886	-560.44580	79.52080	-471.14230	-855.01294	202.94829	-298.81924	
117	1.160				-604.19879	1683.13391	-399.64111	-481.38245	1574.32642	-343.77664	-678.63715	1553.78198	-227.06328	-472.47977	1434.05188	-428.79324	-793.42023	1434.91821	-363.33740	-624.58252	1317.06421	-334.70667	-668.74188	1423.16650	-500.81110	-339.84393	1098.68030	-392.27597	-905.69562	1109.54541	-366.48337	-304.09311	881.30127	-311.28857	-923.19647	861.88269	-292.38202	-571.22113	1030.26013	-297.04135	-700.46826	1018.72559	-284.00433	-648.63324	933.63770	-547.82489	-468.71149	429.40475	-457.68497	-829.74091	586.43262	-219.24467	-559.05084	78.17786	-473.18015	-852.06647	190.17134	-264.24341	
118	1.170				-602.06470	1681.27222	-388.92593	-479.24683	1573.04309	-333.92340	-675.66956	1551.56897	-215.47322	-471.20053	1432.75391	-419.55490	-791.53156	1433.20740	-351.70242	-622.61383	1315.14758	-321.84088	-667.53455	1421.59741	-490.50256	-338.10217	1096.79224	-381.43970	-905.24402	1108.17847	-356.25430	-300.90979	881.48132	-295.24915	-922.17871	859.29761	-282.14597	-569.31561	1028.04065	-286.05759	-698.86951	1015.83716	-275.41660	-648.85498	931.93890	-536.42682	-467.77991	428.62396	-458.76315	-827.75586	585.21326	-206.15707	-557.33527	76.60627	-475.51642	-851.12592	177.83467	-230.57446	
